<svg xmlns="http://www.w3.org/2000/svg" viewBox="0 0 305 124" fill="none">
  <g opacity="0.5" filter="url(#filter0_d_2047_4901)">
    <path fill-rule="evenodd" clip-rule="evenodd" d="M223.707 8.00007C224.73 7.99131 225.597 8.76 225.72 9.78559L231.874 61.1029H238.697L248.162 45.8215C248.605 45.1061 249.44 44.7419 250.26 44.9068C251.08 45.0717 251.713 45.7313 251.851 46.5634L257.51 80.8271L262.697 64.2137C262.96 63.3687 263.737 62.7941 264.615 62.7941H302.489C303.6 62.7941 304.5 63.7027 304.5 64.8235C304.5 65.9443 303.6 66.8529 302.489 66.8529H266.09L258.824 90.1245C258.544 91.0198 257.693 91.6048 256.765 91.5391C255.837 91.4734 255.075 90.7742 254.922 89.8483L248.757 52.5188L241.517 64.2079C241.15 64.8013 240.505 65.1618 239.812 65.1618H230.092C229.075 65.1618 228.218 64.3952 228.096 63.3762L223.876 28.1938L216.674 98.1802C216.569 99.2047 215.72 99.987 214.699 99.9998C213.679 100.013 212.81 99.2518 212.68 98.2303L206.777 52.0628L200.357 64.0945C200.006 64.7518 199.326 65.1618 198.586 65.1618H118.978L111.695 90.0887C111.438 90.9681 110.628 91.5644 109.72 91.5436C108.812 91.5227 108.03 90.8899 107.813 89.9995L98.5619 52.055L90.0219 65.8962C89.6548 66.4912 89.0094 66.8529 88.3148 66.8529H80.2707C79.2257 66.8529 78.3549 66.0454 78.2668 64.9946L76.0322 38.3448L67.177 98.2699C67.028 99.2781 66.161 100.018 65.1511 99.9996C64.1411 99.9809 63.3016 99.2091 63.1894 98.196L57.5685 47.4435L49.2173 64.0507C48.8745 64.7323 48.1813 65.1618 47.4239 65.1618H2.51103C1.40037 65.1618 0.5 64.2532 0.5 63.1323C0.5 62.0115 1.40037 61.1029 2.51103 61.1029H46.1893L57.0264 39.5522C57.4286 38.7524 58.3035 38.3138 59.1781 38.4737C60.0527 38.6335 60.7196 39.3538 60.8183 40.2452L65.4736 82.2784L74.5948 20.5536C74.7453 19.5351 75.6278 18.7918 76.6478 18.8246C77.6677 18.8573 78.5016 19.6557 78.5877 20.6818L82.1187 62.7941H87.1979L97.6683 45.8244C98.0957 45.1316 98.8928 44.7646 99.6915 44.8929C100.49 45.0211 101.135 45.6197 101.328 46.4122L109.941 81.7393L115.546 62.5584C115.798 61.6954 116.583 61.1029 117.475 61.1029H197.385L206.2 44.582C206.614 43.8059 207.477 43.3883 208.336 43.5485C209.195 43.7088 209.854 44.4102 209.965 45.2844L214.458 80.4225L221.724 9.81979C221.829 8.79224 222.683 8.00883 223.707 8.00007Z" fill="white"/>
  </g>
  <defs>
    <filter id="filter0_d_2047_4901" x="-15.5" y="0" width="336" height="124" filterUnits="userSpaceOnUse" color-interpolation-filters="sRGB">
      <feFlood flood-opacity="0" result="BackgroundImageFix"/>
      <feColorMatrix in="SourceAlpha" type="matrix" values="0 0 0 0 0 0 0 0 0 0 0 0 0 0 0 0 0 0 127 0" result="hardAlpha"/>
      <feOffset dy="8"/>
      <feGaussianBlur stdDeviation="8"/>
      <feColorMatrix type="matrix" values="0 0 0 0 0.0352941 0 0 0 0 0.117647 0 0 0 0 0.258824 0 0 0 0.2 0"/>
      <feBlend mode="normal" in2="BackgroundImageFix" result="effect1_dropShadow_2047_4901"/>
      <feBlend mode="normal" in="SourceGraphic" in2="effect1_dropShadow_2047_4901" result="shape"/>
    </filter>
  </defs>
</svg>