<svg width="25" height="24" viewBox="0 0 25 24" fill="none" xmlns="http://www.w3.org/2000/svg">
<path fill-rule="evenodd" clip-rule="evenodd" d="M12.8333 4.65885C8.77886 4.65885 5.4921 7.9456 5.4921 12C5.4921 13.4835 5.93211 14.8642 6.68874 16.0187C8.55138 15.1316 10.6356 14.6353 12.8333 14.6353C15.0309 14.6353 17.1152 15.1316 18.9778 16.0187C19.7344 14.8642 20.1745 13.4835 20.1745 12C20.1745 7.9456 16.8877 4.65885 12.8333 4.65885ZM20.1833 18.1758C21.5874 16.5065 22.4333 14.3521 22.4333 12C22.4333 6.69809 18.1352 2.40002 12.8333 2.40002C7.53134 2.40002 3.23328 6.69809 3.23328 12C3.23328 14.3521 4.07913 16.5066 5.48325 18.1759C5.49228 18.187 5.5015 18.1979 5.51089 18.2086C7.27181 20.2834 9.89878 21.6 12.8333 21.6C15.7678 21.6 18.3947 20.2834 20.1556 18.2086C20.1651 18.1979 20.1743 18.187 20.1833 18.1758ZM17.3656 17.7755C15.9674 17.2073 14.4378 16.8941 12.8333 16.8941C11.2287 16.8941 9.69917 17.2073 8.30097 17.7755C9.54902 18.7562 11.1228 19.3412 12.8333 19.3412C14.5437 19.3412 16.1175 18.7562 17.3656 17.7755ZM12.8333 8.42355C11.8976 8.42355 11.1392 9.18204 11.1392 10.1177C11.1392 11.0533 11.8976 11.8118 12.8333 11.8118C13.7689 11.8118 14.5274 11.0533 14.5274 10.1177C14.5274 9.18204 13.7689 8.42355 12.8333 8.42355ZM8.88034 10.1177C8.88034 7.93452 10.6501 6.16473 12.8333 6.16473C15.0164 6.16473 16.7862 7.93452 16.7862 10.1177C16.7862 12.3008 15.0164 14.0706 12.8333 14.0706C10.6501 14.0706 8.88034 12.3008 8.88034 10.1177Z" fill="auto"/>
</svg>
