<svg width="13" height="12" viewBox="0 0 13 12" fill="none" xmlns="http://www.w3.org/2000/svg">
<path fill-rule="evenodd" clip-rule="evenodd" d="M6.49999 2.09999C4.34608 2.09999 2.59999 3.84608 2.59999 5.99999C2.59999 8.1539 4.34608 9.89999 6.49999 9.89999C8.6539 9.89999 10.4 8.1539 10.4 5.99999C10.4 3.84608 8.6539 2.09999 6.49999 2.09999ZM1.39999 5.99999C1.39999 3.18334 3.68334 0.899994 6.49999 0.899994C9.31665 0.899994 11.6 3.18334 11.6 5.99999C11.6 8.81665 9.31665 11.1 6.49999 11.1C3.68334 11.1 1.39999 8.81665 1.39999 5.99999ZM5.89999 3.99999C5.89999 3.66862 6.16862 3.39999 6.49999 3.39999H6.50499C6.83637 3.39999 7.10499 3.66862 7.10499 3.99999C7.10499 4.33136 6.83637 4.59999 6.50499 4.59999H6.49999C6.16862 4.59999 5.89999 4.33136 5.89999 3.99999ZM5.39999 5.99999C5.39999 5.66862 5.66862 5.39999 5.99999 5.39999H6.49999C6.83136 5.39999 7.09999 5.66862 7.09999 5.99999V7.40829C7.38377 7.4559 7.59999 7.70269 7.59999 7.99999C7.59999 8.33137 7.33137 8.59999 6.99999 8.59999H6.49999C6.16862 8.59999 5.89999 8.33137 5.89999 7.99999V6.5917C5.61622 6.54409 5.39999 6.29729 5.39999 5.99999Z" fill="#10061F"/>
</svg>
