<svg width="24" height="24" viewBox="0 0 24 24" fill="none" xmlns="http://www.w3.org/2000/svg">
<path d="M13.0152 2.7515C12.5466 2.28287 11.7868 2.28287 11.3182 2.7515L2.91818 11.1515C2.44955 11.6201 2.44955 12.3799 2.91818 12.8486C3.38681 13.3172 4.14661 13.3172 4.61524 12.8486L4.96671 12.4971V20.4C4.96671 21.0628 5.50397 21.6 6.16671 21.6H8.56671C9.22945 21.6 9.76671 21.0628 9.76671 20.4V18C9.76671 17.3373 10.304 16.8 10.9667 16.8H13.3667C14.0295 16.8 14.5667 17.3373 14.5667 18V20.4C14.5667 21.0628 15.104 21.6 15.7667 21.6H18.1667C18.8295 21.6 19.3667 21.0628 19.3667 20.4V12.4971L19.7182 12.8486C20.1868 13.3172 20.9466 13.3172 21.4152 12.8486C21.8839 12.3799 21.8839 11.6201 21.4152 11.1515L13.0152 2.7515Z" fill="auto"/>
</svg>
