<svg xmlns="http://www.w3.org/2000/svg" width="37" height="36" viewBox="0 0 37 36" fill="none">
  <g filter="url(#filter0_d_656_16425)">
    <mask id="path-1-inside-1_656_16425" fill="white">
      <path d="M34.5 17C34.5 25.8366 27.3366 33 18.5 33C9.66344 33 2.5 25.8366 2.5 17C2.5 8.16344 9.66344 1 18.5 1C27.3366 1 34.5 8.16344 34.5 17ZM10.5 17C10.5 21.4183 14.0817 25 18.5 25C22.9183 25 26.5 21.4183 26.5 17C26.5 12.5817 22.9183 9 18.5 9C14.0817 9 10.5 12.5817 10.5 17Z"/>
    </mask>
    <path d="M34.5 17C34.5 25.8366 27.3366 33 18.5 33C9.66344 33 2.5 25.8366 2.5 17C2.5 8.16344 9.66344 1 18.5 1C27.3366 1 34.5 8.16344 34.5 17ZM10.5 17C10.5 21.4183 14.0817 25 18.5 25C22.9183 25 26.5 21.4183 26.5 17C26.5 12.5817 22.9183 9 18.5 9C14.0817 9 10.5 12.5817 10.5 17Z" fill="#F9E9DF" stroke="white" stroke-width="2" mask="url(#path-1-inside-1_656_16425)"/>
    <mask id="path-2-inside-2_656_16425" fill="white">
      <path d="M18.5 1C15.4126 1 12.3911 1.89327 9.79996 3.57207C7.20884 5.25087 5.15879 7.64349 3.89706 10.4613C2.63533 13.2792 2.21582 16.4019 2.68913 19.4528C3.16244 22.5038 4.50836 25.3526 6.56454 27.6557C8.62072 29.9589 11.2993 31.6179 14.2773 32.4327C17.2553 33.2476 20.4054 33.1834 23.3477 32.2479C26.29 31.3125 28.8988 29.5458 30.8595 27.1608C32.8202 24.7759 34.049 21.8746 34.3976 18.8069L26.4488 17.9034C26.2745 19.4373 25.6601 20.8879 24.6798 22.0804C23.6994 23.2729 22.395 24.1563 20.9239 24.624C19.4527 25.0917 17.8776 25.1238 16.3887 24.7164C14.8997 24.3089 13.5604 23.4794 12.5323 22.3279C11.5042 21.1763 10.8312 19.7519 10.5946 18.2264C10.3579 16.701 10.5677 15.1396 11.1985 13.7307C11.8294 12.3217 12.8544 11.1254 14.15 10.286C15.4455 9.44664 16.9563 9 18.5 9V1Z"/>
    </mask>
  </g>
  <defs>
    <filter id="filter0_d_656_16425" x="0.49999" y="0" width="36" height="36" filterUnits="userSpaceOnUse" color-interpolation-filters="sRGB">
      <feFlood flood-opacity="0" result="BackgroundImageFix"/>
      <feColorMatrix in="SourceAlpha" type="matrix" values="0 0 0 0 0 0 0 0 0 0 0 0 0 0 0 0 0 0 127 0" result="hardAlpha"/>
      <feOffset dy="1"/>
      <feGaussianBlur stdDeviation="1"/>
      <feColorMatrix type="matrix" values="0 0 0 0 0.0352941 0 0 0 0 0.117647 0 0 0 0 0.258824 0 0 0 0.25 0"/>
      <feBlend mode="normal" in2="BackgroundImageFix" result="effect1_dropShadow_656_16425"/>
      <feBlend mode="normal" in="SourceGraphic" in2="effect1_dropShadow_656_16425" result="shape"/>
    </filter>
  </defs>
</svg>