<svg width="21" height="20" viewBox="0 0 21 20" fill="none" xmlns="http://www.w3.org/2000/svg">
<path fill-rule="evenodd" clip-rule="evenodd" d="M15.7244 4.52557C14.8668 3.66795 13.4763 3.66795 12.6187 4.52557L11.7563 5.38801C11.3887 5.75556 10.7928 5.75556 10.4252 5.38801C10.0577 5.02046 10.0577 4.42454 10.4252 4.05698L11.2877 3.19454C12.8804 1.60182 15.4627 1.60182 17.0555 3.19454C18.6482 4.78727 18.6482 7.36959 17.0555 8.96232L13.9182 12.0996C12.3255 13.6923 9.74315 13.6923 8.15043 12.0996C7.78287 11.732 7.78287 11.1361 8.15043 10.7685C8.51798 10.401 9.1139 10.401 9.48145 10.7685C10.3391 11.6262 11.7296 11.6262 12.5872 10.7685L15.7244 7.63129C16.5821 6.77367 16.5821 5.38319 15.7244 4.52557ZM11.0185 9.23145C10.1609 8.37383 8.77045 8.37383 7.91282 9.23145L4.77557 12.3687C3.91795 13.2263 3.91795 14.6168 4.77557 15.4744C5.63319 16.3321 7.02367 16.3321 7.88129 15.4744L8.74526 14.6105C9.11282 14.2429 9.70874 14.2429 10.0763 14.6105C10.4438 14.978 10.4438 15.5739 10.0763 15.9415L9.21232 16.8055C7.61959 18.3982 5.03727 18.3982 3.44454 16.8055C1.85182 15.2127 1.85182 12.6304 3.44454 11.0377L6.5818 7.90043C8.17453 6.3077 10.7568 6.3077 12.3496 7.90043C12.7171 8.26798 12.7171 8.8639 12.3496 9.23145C11.982 9.599 11.3861 9.599 11.0185 9.23145Z" fill="#EE511E"/>
</svg>
