<svg width="21" height="20" viewBox="0 0 21 20" fill="none" xmlns="http://www.w3.org/2000/svg">
<path fill-rule="evenodd" clip-rule="evenodd" d="M2.75 3.91304C2.75 2.8565 3.60603 2 4.662 2H6.40019C7.45616 2 8.31219 2.8565 8.31219 3.91304V5.65217C8.31219 6.70872 7.45616 7.56522 6.40019 7.56522H4.662C3.60603 7.56522 2.75 6.70872 2.75 5.65217V3.91304ZM4.83582 4.08696V5.47826H6.22637V4.08696H4.83582ZM10.7457 2C11.3216 2 11.7886 2.46718 11.7886 3.04348V3.91304C11.7886 4.48934 11.3216 4.95652 10.7457 4.95652C10.1697 4.95652 9.70274 4.48934 9.70274 3.91304V3.04348C9.70274 2.46718 10.1697 2 10.7457 2ZM13.1791 3.91304C13.1791 2.8565 14.0351 2 15.0911 2H16.8293C17.8853 2 18.7413 2.8565 18.7413 3.91304V5.65217C18.7413 6.70872 17.8853 7.56522 16.8293 7.56522H15.0911C14.0351 7.56522 13.1791 6.70872 13.1791 5.65217V3.91304ZM15.2649 4.08696V5.47826H16.6555V4.08696H15.2649ZM10.7457 6.34783C11.3216 6.34783 11.7886 6.81501 11.7886 7.3913V8.95652H14.2307C14.8067 8.95652 15.2736 9.4237 15.2736 10C15.2736 10.5763 14.8067 11.0435 14.2307 11.0435H10.7457C10.1697 11.0435 9.70274 10.5763 9.70274 10V7.3913C9.70274 6.81501 10.1697 6.34783 10.7457 6.34783ZM2.75 10C2.75 9.4237 3.21693 8.95652 3.79291 8.95652H7.26928C7.84527 8.95652 8.31219 9.4237 8.31219 10C8.31219 10.5763 7.84527 11.0435 7.26928 11.0435H3.79291C3.21693 11.0435 2.75 10.5763 2.75 10ZM16.6555 10C16.6555 9.4237 17.1224 8.95652 17.6984 8.95652H17.7071C18.2831 8.95652 18.75 9.4237 18.75 10C18.75 10.5763 18.2831 11.0435 17.7071 11.0435H17.6984C17.1224 11.0435 16.6555 10.5763 16.6555 10ZM2.75 14.3478C2.75 13.2913 3.60603 12.4348 4.662 12.4348H6.40019C7.45616 12.4348 8.31219 13.2913 8.31219 14.3478V16.087C8.31219 17.1435 7.45616 18 6.40019 18H4.662C3.60603 18 2.75 17.1435 2.75 16.087V14.3478ZM4.83582 14.5217V15.913H6.22637V14.5217H4.83582ZM9.70274 13.4783C9.70274 12.902 10.1697 12.4348 10.7457 12.4348H12.4838C13.0598 12.4348 13.5268 12.902 13.5268 13.4783C13.5268 14.0546 13.0598 14.5217 12.4838 14.5217H11.7886V16.9565C11.7886 17.5328 11.3216 18 10.7457 18C10.1697 18 9.70274 17.5328 9.70274 16.9565V13.4783ZM14.9173 13.4783C14.9173 12.902 15.3842 12.4348 15.9602 12.4348H17.6984C18.2744 12.4348 18.7413 12.902 18.7413 13.4783C18.7413 14.0546 18.2744 14.5217 17.6984 14.5217H15.9602C15.3842 14.5217 14.9173 14.0546 14.9173 13.4783ZM13.1791 16.9565C13.1791 16.3802 13.646 15.913 14.222 15.913H17.6984C18.2744 15.913 18.7413 16.3802 18.7413 16.9565C18.7413 17.5328 18.2744 18 17.6984 18H14.222C13.646 18 13.1791 17.5328 13.1791 16.9565Z" fill="#EE511E"/>
</svg>
