<svg width="32" height="32" viewBox="0 0 34 34" fill="none" xmlns="http://www.w3.org/2000/svg">
<g clip-path="url(#clip0_656_16693)">
<path fill-rule="evenodd" clip-rule="evenodd" d="M20.0908 10.3827C21.0132 8.65459 23.0454 7.80967 24.8852 8.47934C26.7251 9.149 27.7387 11.1025 27.3345 13.0192C29.5636 15.3944 30.3929 18.9747 29.1732 22.3261L27.8176 26.0506C27.7229 26.3107 27.7323 26.5966 27.8438 26.8455L28.848 29.0872C29.0933 29.6348 28.9892 30.2862 28.5843 30.7376C28.1794 31.1891 27.5533 31.3516 26.9981 31.1496L22.6457 29.5654C21.5705 32.1477 18.7064 33.4734 16.1295 32.5355C13.5527 31.5976 12.2107 28.741 13.047 26.0718L8.69458 24.4876C8.13935 24.2855 7.76428 23.7586 7.74426 23.1525C7.72424 22.5464 8.06321 21.9805 8.60312 21.7186L10.8133 20.6469C11.0587 20.5279 11.2497 20.3149 11.3444 20.0548L12.7 16.3303C13.9198 12.979 16.8565 10.7694 20.0908 10.3827ZM15.7998 27.0737C15.5273 28.1764 16.0997 29.3196 17.1596 29.7053C18.2195 30.0911 19.3928 29.5833 19.8929 28.5635L15.7998 27.0737ZM23.8552 11.3095C23.3497 11.1255 22.7863 11.3987 22.5966 11.9198L22.4501 12.3224C22.2318 12.9221 21.6705 13.3232 21.0492 13.3234C18.6316 13.3242 16.3417 14.8673 15.4455 17.3296L14.0899 21.0541C13.84 21.7408 13.4173 22.3429 12.8729 22.8034L24.8799 27.1735C24.7589 26.4709 24.8221 25.7379 25.072 25.0513L26.4276 21.3268C27.3238 18.8645 26.5616 16.2105 24.7101 14.6559C24.2343 14.2564 24.0622 13.5883 24.2804 12.9885L24.427 12.5859C24.6166 12.0649 24.3606 11.4934 23.8552 11.3095Z" fill="#10061F"/>
</g>
<defs>
<clipPath id="clip0_656_16693">
<rect width="32" height="32" fill="white" transform="translate(10.9446) rotate(20)"/>
</clipPath>
</defs>
</svg>
