<svg width="20" height="20" viewBox="0 0 20 20" fill="none" xmlns="http://www.w3.org/2000/svg">
<path fill-rule="evenodd" clip-rule="evenodd" d="M7.59108 4.14275C7.7634 2.93062 8.77627 2 10 2C11.2237 2 12.2366 2.93062 12.4089 4.14275C14.2258 5.06121 15.4782 6.98669 15.4782 9.21569V11.6929C15.4782 11.8659 15.5449 12.0318 15.6636 12.1542L16.7325 13.2561C16.9937 13.5252 17.0718 13.93 16.9305 14.2817C16.7892 14.6334 16.4562 14.8627 16.0869 14.8627H13.1921C13.1127 16.6092 11.7139 18 10 18C8.28611 18 6.88735 16.6092 6.80792 14.8627H3.91307C3.54378 14.8627 3.21085 14.6334 3.06953 14.2817C2.92821 13.93 3.00632 13.5252 3.26745 13.2561L4.33642 12.1542C4.45509 12.0318 4.52176 11.8659 4.52176 11.6929V9.21569C4.52176 6.98669 5.77417 5.06121 7.59108 4.14275ZM8.6388 14.8627C8.7145 15.5686 9.29505 16.1176 10 16.1176C10.7049 16.1176 11.2855 15.5686 11.3612 14.8627H8.6388ZM10 3.88235C9.66383 3.88235 9.39131 4.16327 9.39131 4.5098V4.77758C9.39131 5.17647 9.14738 5.53203 8.78253 5.66496C7.36281 6.18222 6.34784 7.57798 6.34784 9.21569V11.6929C6.34784 12.1496 6.22827 12.5936 6.00701 12.9804H13.993C13.7717 12.5936 13.6522 12.1496 13.6522 11.6929V9.21569C13.6522 7.57798 12.6372 6.18222 11.2175 5.66496C10.8526 5.53203 10.6087 5.17647 10.6087 4.77758V4.5098C10.6087 4.16327 10.3362 3.88235 10 3.88235Z" fill="#10061F"/>
</svg>
