<svg xmlns="http://www.w3.org/2000/svg" width="16" height="16" viewBox="0 0 16 16" fill="none">
  <path fill-rule="evenodd" clip-rule="evenodd" d="M14.1555 4.33031C14.4815 4.62435 14.4815 5.10109 14.1555 5.39513L11.3729 7.90493C11.0469 8.19898 10.5183 8.19898 10.1923 7.90493C9.86632 7.61089 9.86632 7.13416 10.1923 6.84011L11.5499 5.61566L5.21739 5.61566C4.75635 5.61566 4.3826 5.27856 4.3826 4.86272C4.3826 4.44688 4.75635 4.10978 5.21739 4.10978L11.5499 4.10978L10.1923 2.88533C9.86632 2.59128 9.86632 2.11455 10.1923 1.82051C10.5183 1.52646 11.0469 1.52646 11.3729 1.82051L14.1555 4.33031ZM10.7826 10.3843C11.2436 10.3843 11.6174 10.7214 11.6174 11.1372C11.6174 11.5531 11.2436 11.8902 10.7826 11.8902L4.45012 11.8902L5.80767 13.1146C6.13367 13.4087 6.13367 13.8854 5.80767 14.1794C5.48166 14.4735 4.95311 14.4735 4.62711 14.1794L1.8445 11.6696C1.51849 11.3756 1.51849 10.8989 1.8445 10.6048L4.62711 8.09502C4.95311 7.80097 5.48166 7.80097 5.80767 8.09502C6.13367 8.38906 6.13367 8.86579 5.80767 9.15983L4.45012 10.3843L10.7826 10.3843Z" fill="#BCBCBC"/>
</svg>