<svg width="25" height="24" viewBox="0 0 25 24" fill="none" xmlns="http://www.w3.org/2000/svg">
<path fill-rule="evenodd" clip-rule="evenodd" d="M12.5 4.65885C8.4456 4.65885 5.15885 7.9456 5.15885 12C5.15885 16.0544 8.4456 19.3412 12.5 19.3412C16.5544 19.3412 19.8412 16.0544 19.8412 12C19.8412 7.9456 16.5544 4.65885 12.5 4.65885ZM2.90002 12C2.90002 6.69809 7.19809 2.40002 12.5 2.40002C17.802 2.40002 22.1 6.69809 22.1 12C22.1 17.302 17.802 21.6 12.5 21.6C7.19809 21.6 2.90002 17.302 2.90002 12ZM16.1222 9.31906C16.5632 9.76012 16.5632 10.4752 16.1222 10.9163L12.3575 14.681C11.9164 15.1221 11.2013 15.1221 10.7602 14.681L8.87788 12.7986C8.43682 12.3576 8.43682 11.6425 8.87788 11.2014C9.31894 10.7603 10.034 10.7603 10.4751 11.2014L11.5588 12.2851L14.5249 9.31906C14.966 8.87799 15.6811 8.87799 16.1222 9.31906Z" fill="#26A748"/>
</svg>
