<svg width="20" height="20" viewBox="0 0 20 20" fill="none" xmlns="http://www.w3.org/2000/svg">
<path fill-rule="evenodd" clip-rule="evenodd" d="M10 4.33325C9.17159 4.33325 8.50002 5.00482 8.50002 5.83325C8.50002 6.66168 9.17159 7.33325 10 7.33325C10.8284 7.33325 11.5 6.66168 11.5 5.83325C11.5 5.00482 10.8284 4.33325 10 4.33325ZM6.50002 5.83325C6.50002 3.90026 8.06702 2.33325 10 2.33325C11.933 2.33325 13.5 3.90026 13.5 5.83325C13.5 7.76625 11.933 9.33325 10 9.33325C8.06702 9.33325 6.50002 7.76625 6.50002 5.83325ZM4.16669 7.66658C3.7985 7.66658 3.50002 7.96506 3.50002 8.33325C3.50002 8.70144 3.7985 8.99992 4.16669 8.99992C4.53488 8.99992 4.83335 8.70144 4.83335 8.33325C4.83335 7.96506 4.53488 7.66658 4.16669 7.66658ZM1.50002 8.33325C1.50002 6.86049 2.69393 5.66659 4.16669 5.66659C5.63945 5.66659 6.83335 6.86049 6.83335 8.33325C6.83335 9.80601 5.63945 10.9999 4.16669 10.9999C2.69393 10.9999 1.50002 9.80601 1.50002 8.33325ZM15.8334 7.66658C15.4652 7.66658 15.1667 7.96506 15.1667 8.33325C15.1667 8.70144 15.4652 8.99992 15.8334 8.99992C16.2015 8.99992 16.5 8.70144 16.5 8.33325C16.5 7.96506 16.2015 7.66658 15.8334 7.66658ZM13.1667 8.33325C13.1667 6.86049 14.3606 5.66659 15.8334 5.66659C17.3061 5.66659 18.5 6.86049 18.5 8.33325C18.5 9.80601 17.3061 10.9999 15.8334 10.9999C14.3606 10.9999 13.1667 9.80601 13.1667 8.33325ZM10 11.8333C8.66831 11.8333 7.52626 12.6556 7.05861 13.8239C6.91361 14.1862 6.83335 14.5825 6.83335 14.9999V15.6666H13.1667V14.9999C13.1667 14.5825 13.0864 14.1862 12.9414 13.8239C12.4738 12.6556 11.3317 11.8333 10 11.8333ZM15.1667 15.6666H17.3334V14.9999C17.3334 14.1715 16.6618 13.4999 15.8334 13.4999C15.5305 13.4999 15.2488 13.5892 15.0127 13.7439C15.1134 14.1467 15.1667 14.5676 15.1667 14.9999V15.6666ZM14.1546 11.9283C13.214 10.658 11.7041 9.83325 10 9.83325C8.29599 9.83325 6.78606 10.658 5.84542 11.9283C5.34719 11.6555 4.77502 11.4999 4.16669 11.4999C2.23369 11.4999 0.666687 13.0669 0.666687 14.9999V16.6666C0.666687 17.2189 1.1144 17.6666 1.66669 17.6666H18.3334C18.8856 17.6666 19.3334 17.2189 19.3334 16.6666V14.9999C19.3334 13.0669 17.7663 11.4999 15.8334 11.4999C15.225 11.4999 14.6528 11.6555 14.1546 11.9283ZM4.98734 13.7439C4.75125 13.5892 4.46951 13.4999 4.16669 13.4999C3.33826 13.4999 2.66669 14.1715 2.66669 14.9999V15.6666H4.83335V14.9999C4.83335 14.5676 4.88667 14.1467 4.98734 13.7439Z" fill="#EE511E"/>
</svg>
