<svg width="21" height="20" viewBox="0 0 21 20" fill="none" xmlns="http://www.w3.org/2000/svg">
<path fill-rule="evenodd" clip-rule="evenodd" d="M8.14706 3.88235C6.9342 3.88235 5.95098 4.86557 5.95098 6.07843C5.95098 7.29129 6.9342 8.27451 8.14706 8.27451C9.35992 8.27451 10.3431 7.29129 10.3431 6.07843C10.3431 4.86557 9.35992 3.88235 8.14706 3.88235ZM4.06863 6.07843C4.06863 3.82598 5.8946 2 8.14706 2C10.3995 2 12.2255 3.82598 12.2255 6.07843C12.2255 8.33089 10.3995 10.1569 8.14706 10.1569C5.8946 10.1569 4.06863 8.33089 4.06863 6.07843ZM15.2059 6.70588C15.7257 6.70588 16.1471 7.12726 16.1471 7.64706V9.05882H17.5588C18.0786 9.05882 18.5 9.4802 18.5 10C18.5 10.5198 18.0786 10.9412 17.5588 10.9412H16.1471V12.3529C16.1471 12.8727 15.7257 13.2941 15.2059 13.2941C14.6861 13.2941 14.2647 12.8727 14.2647 12.3529V10.9412H12.8529C12.3331 10.9412 11.9118 10.5198 11.9118 10C11.9118 9.4802 12.3331 9.05882 12.8529 9.05882H14.2647V7.64706C14.2647 7.12726 14.6861 6.70588 15.2059 6.70588ZM4.38556 16.1176H11.9086C11.8263 14.1112 10.1737 12.5098 8.14706 12.5098C6.12041 12.5098 4.4678 14.1112 4.38556 16.1176ZM2.5 16.2745C2.5 13.1557 5.02827 10.6274 8.14706 10.6274C11.2658 10.6274 13.7941 13.1557 13.7941 16.2745V17.0588C13.7941 17.5786 13.3727 18 12.8529 18H3.44118C2.92138 18 2.5 17.5786 2.5 17.0588V16.2745Z" fill="#EE511E"/>
</svg>
