<svg width="20" height="20" viewBox="0 0 20 20" fill="none" xmlns="http://www.w3.org/2000/svg">
<path fill-rule="evenodd" clip-rule="evenodd" d="M8.43137 3.88235C5.91902 3.88235 3.88235 5.91902 3.88235 8.43137C3.88235 10.9437 5.91902 12.9804 8.43137 12.9804C10.9437 12.9804 12.9804 10.9437 12.9804 8.43137C12.9804 5.91902 10.9437 3.88235 8.43137 3.88235ZM2 8.43137C2 4.87942 4.87942 2 8.43137 2C11.9833 2 14.8627 4.87942 14.8627 8.43137C14.8627 9.86785 14.3918 11.1943 13.5959 12.2649L17.7243 16.3933C18.0919 16.7609 18.0919 17.3568 17.7243 17.7243C17.3568 18.0919 16.7609 18.0919 16.3933 17.7243L12.2649 13.5959C11.1943 14.3918 9.86785 14.8627 8.43137 14.8627C4.87942 14.8627 2 11.9833 2 8.43137Z" fill="#BCBCBC"/>
</svg>
