<svg width="29" height="22" viewBox="0 0 29 22" fill="none" xmlns="http://www.w3.org/2000/svg">
<path d="M20.6183 21L13.4398 1.39944C13.3957 1.28334 13.2897 1.20731 13.1717 1.20731H8.06911C7.9519 1.20731 7.8463 1.28245 7.80176 1.39755L0.543959 20.153C0.38767 20.5569 0.667386 21 1.07864 21H12.5064C12.7109 21 12.8507 20.7807 12.7748 20.5792L11.2718 16.5899C11.228 16.4734 11.1217 16.397 11.0035 16.397H7.73505C7.32146 16.397 7.04169 15.9493 7.20245 15.5448L10.2286 7.92898C10.428 7.42713 11.0985 7.42925 11.2951 7.93234L16.2537 20.6215C16.3433 20.8506 16.554 21 16.7876 21H20.6183Z" fill="url(#paint0_linear_2149_5360)"/>
<path d="M18.0517 4.789L16.838 1.46016C16.7667 1.26457 16.9027 1.05394 17.1002 1.05394C17.1157 1.05394 17.1312 1.0553 17.1464 1.058L17.557 1.13066C17.8455 1.18171 18.1376 1.20737 18.4301 1.20737H19.1467L20.2755 1.30725C20.6784 1.34289 21.0779 1.41311 21.4701 1.51722C21.8474 1.61737 22.2168 1.74856 22.5749 1.90962L22.7315 1.98006C23.5174 2.3335 24.2557 2.79598 24.9272 3.35542L26.0833 4.58287C26.848 5.59774 27.4375 6.74827 27.8246 7.98124L27.9619 8.41866L28.1705 9.52604C28.3198 10.3185 28.368 11.1287 28.3138 11.9348C28.272 12.5554 28.1698 13.1697 28.0088 13.768L27.9619 13.9422L27.5284 15.0162C27.3366 15.6272 27.0689 16.2083 26.7324 16.7442L26.6613 16.8574L26.0833 17.6246L25.5052 18.2383L24.8879 18.7845C24.7216 18.9316 24.5449 19.0648 24.3594 19.183L24.0357 19.3892C23.9559 19.4401 23.8823 19.5011 23.8165 19.5709C23.6916 19.7036 23.5393 19.8035 23.3717 19.8628L23.193 19.926L22.1213 20.3527C22.0651 20.3751 22.0074 20.3926 21.9485 20.4051L21.452 20.5105C21.3669 20.5286 21.2974 20.5937 21.27 20.6811C21.2195 20.8418 21.0391 20.9075 20.9064 20.8136L20.8112 20.7462C20.7622 20.7115 20.7228 20.6635 20.6972 20.6071L19.4356 17.8251C19.1403 17.1739 19.4937 16.4005 20.1582 16.2437L20.703 16.0784C21.0116 15.9848 21.3048 15.8293 21.5616 15.6249C21.6845 15.527 21.817 15.4398 21.9544 15.3669C22.2005 15.2363 22.4251 15.0643 22.6197 14.8578L22.6546 14.8207C22.8202 14.6448 22.9649 14.4481 23.0854 14.2349L23.1666 14.0912C23.2804 13.8899 23.3788 13.6793 23.4609 13.4613L23.6265 13.0216C23.8166 12.618 23.9156 12.173 23.9156 11.7217V10.5916C23.9156 10.2702 23.8668 9.95099 23.7711 9.64612C23.6748 9.33964 23.5583 9.0408 23.4222 8.75185L23.3375 8.5721L23.0895 8.17704C22.87 7.82754 22.6186 7.50191 22.3388 7.20489L22.2271 7.08625C22.1005 6.95182 21.965 6.8271 21.8218 6.71303C21.5807 6.52106 21.3189 6.36036 21.0419 6.23433L20.9262 6.18167C20.6081 6.03692 20.2747 5.93322 19.9333 5.87281L19.7031 5.83207C19.6213 5.8176 19.5385 5.81032 19.4556 5.81032C18.8339 5.81032 18.2762 5.40456 18.0517 4.789Z" fill="url(#paint1_linear_2149_5360)"/>
<path d="M16.6815 1L18.4156 5.90982M18.969 16.4966L20.1325 16.1709C26.0892 14.5688 24.5399 5.16955 18.4248 5.81026M16.6907 1.05387L19.2167 1.10134C30.6267 1.31575 31.9653 18.8358 20.737 21M13.4398 1.39944L20.6183 21H16.7876C16.554 21 16.3433 20.8506 16.2537 20.6215L11.2951 7.93234C11.0985 7.42925 10.428 7.42714 10.2286 7.92898L7.20245 15.5448C7.04169 15.9493 7.32146 16.397 7.73505 16.397H11.0035C11.1217 16.397 11.228 16.4734 11.2718 16.5899L12.7748 20.5792C12.8507 20.7807 12.7109 21 12.5064 21H1.07864C0.667386 21 0.38767 20.5569 0.543959 20.153L7.80176 1.39755C7.8463 1.28245 7.9519 1.20731 8.06911 1.20731H13.1717C13.2897 1.20731 13.3957 1.28334 13.4398 1.39944ZM16.838 1.46016L18.0517 4.789C18.2762 5.40456 18.8339 5.81032 19.4556 5.81032C19.5385 5.81032 19.6213 5.8176 19.7031 5.83207L19.9333 5.87281C20.2747 5.93322 20.6081 6.03692 20.9262 6.18167L21.0419 6.23433C21.3189 6.36036 21.5807 6.52106 21.8218 6.71303C21.965 6.8271 22.1005 6.95182 22.2271 7.08625L22.3388 7.20489C22.6186 7.50191 22.87 7.82754 23.0895 8.17704L23.3375 8.5721L23.4222 8.75185C23.5583 9.0408 23.6748 9.33964 23.7711 9.64612C23.8668 9.95099 23.9156 10.2702 23.9156 10.5916V11.7217C23.9156 12.173 23.8166 12.618 23.6265 13.0216L23.4609 13.4613C23.3788 13.6793 23.2804 13.8899 23.1666 14.0912L23.0854 14.2349C22.9649 14.4481 22.8202 14.6448 22.6546 14.8207L22.6197 14.8578C22.4251 15.0643 22.2005 15.2363 21.9544 15.3669C21.817 15.4398 21.6845 15.527 21.5616 15.6249C21.3048 15.8293 21.0116 15.9848 20.703 16.0784L20.1582 16.2437C19.4937 16.4005 19.1403 17.1739 19.4356 17.8251L20.6972 20.6071C20.7228 20.6635 20.7622 20.7115 20.8112 20.7462L20.9064 20.8136C21.0391 20.9075 21.2195 20.8418 21.27 20.6811C21.2974 20.5937 21.3669 20.5286 21.452 20.5105L21.9485 20.4051C22.0074 20.3926 22.0651 20.3751 22.1213 20.3527L23.193 19.926L23.3717 19.8628C23.5393 19.8035 23.6916 19.7036 23.8165 19.5709C23.8823 19.5011 23.9559 19.44 24.0357 19.3892L24.3594 19.183C24.5449 19.0648 24.7216 18.9316 24.8879 18.7845L25.5052 18.2383L26.0833 17.6246L26.6613 16.8574L26.7324 16.7442C27.0689 16.2083 27.3366 15.6272 27.5284 15.0162L27.9619 13.9422L28.0088 13.768C28.1698 13.1697 28.272 12.5554 28.3138 11.9348C28.368 11.1287 28.3198 10.3185 28.1705 9.52604L27.9619 8.41866L27.8246 7.98124C27.4375 6.74827 26.848 5.59774 26.0833 4.58287L24.9272 3.35542C24.2557 2.79598 23.5174 2.3335 22.7315 1.98006L22.5749 1.90962C22.2168 1.74856 21.8474 1.61737 21.4701 1.51722C21.0779 1.41311 20.6784 1.34289 20.2755 1.30725L19.1467 1.20737H18.4301C18.1376 1.20737 17.8455 1.18171 17.557 1.13066L17.1464 1.058C17.1312 1.0553 17.1157 1.05394 17.1002 1.05394C16.9027 1.05394 16.7667 1.26457 16.838 1.46016Z" stroke="#EE511E" stroke-width="0.2"/>
<path d="M16.6815 1L18.4156 5.90982M18.969 16.4966L20.1325 16.1709C26.0892 14.5688 24.5399 5.16955 18.4248 5.81026M16.6907 1.05387L19.2167 1.10134C30.6267 1.31575 31.9653 18.8358 20.737 21M13.4398 1.39944L20.6183 21H16.7876C16.554 21 16.3433 20.8506 16.2537 20.6215L11.2951 7.93234C11.0985 7.42925 10.428 7.42714 10.2286 7.92898L7.20245 15.5448C7.04169 15.9493 7.32146 16.397 7.73505 16.397H11.0035C11.1217 16.397 11.228 16.4734 11.2718 16.5899L12.7748 20.5792C12.8507 20.7807 12.7109 21 12.5064 21H1.07864C0.667386 21 0.38767 20.5569 0.543959 20.153L7.80176 1.39755C7.8463 1.28245 7.9519 1.20731 8.06911 1.20731H13.1717C13.2897 1.20731 13.3957 1.28334 13.4398 1.39944ZM16.838 1.46016L18.0517 4.789C18.2762 5.40456 18.8339 5.81032 19.4556 5.81032C19.5385 5.81032 19.6213 5.8176 19.7031 5.83207L19.9333 5.87281C20.2747 5.93322 20.6081 6.03692 20.9262 6.18167L21.0419 6.23433C21.3189 6.36036 21.5807 6.52106 21.8218 6.71303C21.965 6.8271 22.1005 6.95182 22.2271 7.08625L22.3388 7.20489C22.6186 7.50191 22.87 7.82754 23.0895 8.17704L23.3375 8.5721L23.4222 8.75185C23.5583 9.0408 23.6748 9.33964 23.7711 9.64612C23.8668 9.95099 23.9156 10.2702 23.9156 10.5916V11.7217C23.9156 12.173 23.8166 12.618 23.6265 13.0216L23.4609 13.4613C23.3788 13.6793 23.2804 13.8899 23.1666 14.0912L23.0854 14.2349C22.9649 14.4481 22.8202 14.6448 22.6546 14.8207L22.6197 14.8578C22.4251 15.0643 22.2005 15.2363 21.9544 15.3669C21.817 15.4398 21.6845 15.527 21.5616 15.6249C21.3048 15.8293 21.0116 15.9848 20.703 16.0784L20.1582 16.2437C19.4937 16.4005 19.1403 17.1739 19.4356 17.8251L20.6972 20.6071C20.7228 20.6635 20.7622 20.7115 20.8112 20.7462L20.9064 20.8136C21.0391 20.9075 21.2195 20.8418 21.27 20.6811C21.2974 20.5937 21.3669 20.5286 21.452 20.5105L21.9485 20.4051C22.0074 20.3926 22.0651 20.3751 22.1213 20.3527L23.193 19.926L23.3717 19.8628C23.5393 19.8035 23.6916 19.7036 23.8165 19.5709C23.8823 19.5011 23.9559 19.44 24.0357 19.3892L24.3594 19.183C24.5449 19.0648 24.7216 18.9316 24.8879 18.7845L25.5052 18.2383L26.0833 17.6246L26.6613 16.8574L26.7324 16.7442C27.0689 16.2083 27.3366 15.6272 27.5284 15.0162L27.9619 13.9422L28.0088 13.768C28.1698 13.1697 28.272 12.5554 28.3138 11.9348C28.368 11.1287 28.3198 10.3185 28.1705 9.52604L27.9619 8.41866L27.8246 7.98124C27.4375 6.74827 26.848 5.59774 26.0833 4.58287L24.9272 3.35542C24.2557 2.79598 23.5174 2.3335 22.7315 1.98006L22.5749 1.90962C22.2168 1.74856 21.8474 1.61737 21.4701 1.51722C21.0779 1.41311 20.6784 1.34289 20.2755 1.30725L19.1467 1.20737H18.4301C18.1376 1.20737 17.8455 1.18171 17.557 1.13066L17.1464 1.058C17.1312 1.0553 17.1157 1.05394 17.1002 1.05394C16.9027 1.05394 16.7667 1.26457 16.838 1.46016Z" stroke="url(#paint2_linear_2149_5360)" stroke-opacity="0.2" stroke-width="0.2"/>
<path d="M19.4751 16.6496C19.4751 16.7696 19.3849 16.8565 19.2861 16.8565C19.1873 16.8565 19.0971 16.7696 19.0971 16.6496C19.0971 16.5297 19.1873 16.4428 19.2861 16.4428C19.3849 16.4428 19.4751 16.5297 19.4751 16.6496Z" fill="#EE511E"/>
<path d="M19.4751 16.6496C19.4751 16.7696 19.3849 16.8565 19.2861 16.8565C19.1873 16.8565 19.0971 16.7696 19.0971 16.6496C19.0971 16.5297 19.1873 16.4428 19.2861 16.4428C19.3849 16.4428 19.4751 16.5297 19.4751 16.6496Z" stroke="#EE511E" stroke-width="0.2"/>
<path d="M19.4751 16.6496C19.4751 16.7696 19.3849 16.8565 19.2861 16.8565C19.1873 16.8565 19.0971 16.7696 19.0971 16.6496C19.0971 16.5297 19.1873 16.4428 19.2861 16.4428C19.3849 16.4428 19.4751 16.5297 19.4751 16.6496Z" stroke="url(#paint3_linear_2149_5360)" stroke-opacity="0.2" stroke-width="0.2"/>
<defs>
<linearGradient id="paint0_linear_2149_5360" x1="0.275825" y1="19.7011" x2="30.8178" y2="14.43" gradientUnits="userSpaceOnUse">
<stop stop-color="#FFA400"/>
<stop offset="1" stop-color="#F4442E"/>
</linearGradient>
<linearGradient id="paint1_linear_2149_5360" x1="0.275825" y1="19.7011" x2="30.8178" y2="14.43" gradientUnits="userSpaceOnUse">
<stop stop-color="#FFA400"/>
<stop offset="1" stop-color="#F4442E"/>
</linearGradient>
<linearGradient id="paint2_linear_2149_5360" x1="14.5" y1="1" x2="14.5" y2="21" gradientUnits="userSpaceOnUse">
<stop stop-color="white"/>
<stop offset="1" stop-color="white" stop-opacity="0"/>
</linearGradient>
<linearGradient id="paint3_linear_2149_5360" x1="19.2861" y1="16.3428" x2="19.2861" y2="16.9565" gradientUnits="userSpaceOnUse">
<stop stop-color="white"/>
<stop offset="1" stop-color="white" stop-opacity="0"/>
</linearGradient>
</defs>
</svg>
